:SAMPLES-PER-SECOND 30
:FULLY-SPECIFIED
:DEGREES
96
root  0.561158 39.6545 13.7493 -173.595 0.300507 -178.884
RightUpLeg  -14.6743 -0.610407 -6.35282
RightLeg  13.0167 4.7373 -0.60827
RightFoot  -3.3123 -0.501761 6.81878
RightToes  -1.33073e-015 0 -3.6325e-017
Spine  19.7335 0.397916 3.81612
Spine1  5.60199 -0.79789 7.59233
HEad  10.0611 -4.38299 1.59335
LeftShoulder1  6.31346 -16.3597 -25.5974
LeftArm  -5.671 -33.0799 -77.565
LeftForeArm  26.8911 6.07866 -1.49191
LeftHand  -0.246645 0.021 5.37786
RightShoulder  9.3896 17.3583 38.8835
RightArm  -5.30594 34.484 53.8016
RightForeArm  24.3772 -0.80482 9.21032
RightHand  -0.24729 -0.0210522 -5.37781
LeftUpLeg  -14.5453 14.9075 11.2064
LeftLeg  12.4019 -3.04197 -1.6708
LeftFoot  -0.917045 0.908598 -9.88346
LeftToes  5.09284e-011 3.02203e-011 3.83118e-011
97
root  0.595896 39.6301 13.7533 -173.638 0.49234 -178.809
RightUpLeg  -14.8671 -0.345253 -6.31005
RightLeg  13.405 4.66498 -0.450042
RightFoot  -3.46705 -0.488103 6.74015
RightToes  -1.33073e-015 0 -3.6325e-017
Spine  19.8396 0.461558 4.10907
Spine1  5.54248 -0.563602 7.13007
HEad  9.88783 -4.39687 1.48383
LeftShoulder1  6.30637 -16.3424 -25.5893
LeftArm  -5.73093 -33.131 -77.4965
LeftForeArm  27.3823 6.06081 -1.41676
LeftHand  -0.246645 0.021 5.37786
RightShoulder  9.37913 17.3401 38.8734
RightArm  -5.22779 34.4578 53.8454
RightForeArm  25.1183 -0.558498 9.21266
RightHand  -0.24729 -0.0210522 -5.37781
LeftUpLeg  -14.6701 15.1318 11.2979
LeftLeg  12.8148 -3.13396 -1.58553
LeftFoot  -1.06154 0.901599 -9.9359
LeftToes  5.09284e-011 3.02203e-011 3.83118e-011
98
root  0.629504 39.6156 13.7514 -173.691 0.778381 -178.711
RightUpLeg  -14.9828 -0.0322154 -6.21375
RightLeg  13.6389 4.63049 -0.34553
RightFoot  -3.53402 -0.478315 6.64808
RightToes  -1.33073e-015 0 -3.6325e-017
Spine  19.885 0.588585 4.28075
Spine1  5.61506 -0.329872 6.84013
HEad  9.80227 -4.35278 1.43203
LeftShoulder1  6.3283 -16.3658 -25.6651
LeftArm  -5.83446 -33.1684 -77.3345
LeftForeArm  27.7416 6.04505 -1.34669
LeftHand  -0.246645 0.021 5.37786
RightShoulder  9.40272 17.3348 38.9928
RightArm  -4.66172 34.6339 53.7312
RightForeArm  24.103 -0.482697 9.50539
RightHand  -0.24729 -0.0210522 -5.37781
LeftUpLeg  -14.6574 15.3029 11.4644
LeftLeg  13.0791 -3.0879 -1.51282
LeftFoot  -1.16233 0.900247 -10.0104
LeftToes  5.09284e-011 3.02203e-011 3.83118e-011
99
root  0.653918 39.6157 13.747 -173.692 0.998657 -178.667
RightUpLeg  -15.0352 0.181734 -6.14612
RightLeg  13.6663 4.62508 -0.325446
RightFoot  -3.51855 -0.475777 6.59452
RightToes  -1.33073e-015 0 -3.6325e-017
Spine  19.8772 0.678063 4.42044
Spine1  5.70006 -0.147036 6.56303
HEad  9.8466 -4.25931 1.44485
LeftShoulder1  6.3534 -16.3825 -25.7686
LeftArm  -5.85417 -33.2069 -77.1749
LeftForeArm  27.9384 6.0429 -1.34657
LeftHand  -0.246645 0.021 5.37786
RightShoulder  9.41953 17.346 39.0467
RightArm  -4.36115 34.8395 53.6204
RightForeArm  23.5418 -0.61256 9.65287
RightHand  -0.24729 -0.0210522 -5.37781
LeftUpLeg  -14.5558 15.3467 11.5884
LeftLeg  13.0479 -2.91978 -1.48791
LeftFoot  -1.18151 0.90616 -10.0825
LeftToes  5.09284e-011 3.02203e-011 3.83118e-011
100
root  0.659177 39.6168 13.7486 -173.637 1.04584 -178.679
RightUpLeg  -15.1007 0.207994 -6.15048
RightLeg  13.6544 4.63239 -0.325656
RightFoot  -3.5111 -0.475857 6.59577
RightToes  -1.33073e-015 0 -3.6325e-017
Spine  19.9492 0.634434 4.70812
Spine1  5.60949 -0.0322779 6.11744
HEad  9.88179 -4.23155 1.51066
LeftShoulder1  6.34301 -16.3577 -25.756
LeftArm  -5.88035 -33.206 -77.1803
LeftForeArm  28.0928 6.03675 -1.32049
LeftHand  -0.246645 0.021 5.37786
RightShoulder  9.41086 17.367 38.9631
RightArm  -4.74637 34.929 53.6141
RightForeArm  25.2048 -0.87213 9.39514
RightHand  -0.24729 -0.0210522 -5.37781
LeftUpLeg  -14.5556 15.3691 11.5886
LeftLeg  12.9674 -2.86454 -1.50437
LeftFoot  -1.19326 0.907562 -10.1234
LeftToes  5.09284e-011 3.02203e-011 3.83118e-011
101
root  0.648051 39.6027 13.7603 -173.588 1.02917 -178.678
RightUpLeg  -15.2522 0.261393 -6.1979
RightLeg  13.8252 4.5485 -0.289413
RightFoot  -3.59204 -0.474001 6.62883
RightToes  -1.33073e-015 0 -3.6325e-017
Spine  20.1651 0.536816 5.1127
Spine1  5.35278 0.0627807 5.64298
HEad  9.80451 -4.34115 1.57168
LeftShoulder1  6.32423 -16.3343 -25.6969
LeftArm  -5.97232 -33.2014 -77.282
LeftForeArm  28.1677 6.0213 -1.23483
LeftHand  -0.246645 0.021 5.37786
RightShoulder  9.38521 17.3853 38.8071
RightArm  -5.07508 34.9525 53.7249
RightForeArm  26.949 -1.02004 9.15616
RightHand  -0.24729 -0.0210522 -5.37781
LeftUpLeg  -14.7531 15.5431 11.5118
LeftLeg  13.1917 -3.06402 -1.50988
LeftFoot  -1.31472 0.897498 -10.1229
LeftToes  5.09284e-011 3.02203e-011 3.83118e-011
102
root  0.633984 39.5729 13.7777 -173.603 1.16867 -178.671
RightUpLeg  -15.4987 0.642645 -6.30491
RightLeg  14.2411 4.29719 -0.213777
RightFoot  -3.76078 -0.46769 6.66426
RightToes  -1.33073e-015 0 -3.6325e-017
Spine  20.4154 0.561757 5.36909
Spine1  5.17381 0.207291 5.40889
HEad  9.66468 -4.46807 1.52886
LeftShoulder1  6.36218 -16.3682 -25.8386
LeftArm  -5.97647 -33.3212 -77.2047
LeftForeArm  28.1023 6.0206 -1.22655
LeftHand  -0.246645 0.021 5.37786
RightShoulder  9.35635 17.3936 38.6574
RightArm  -4.65609 35.0475 53.8634
RightForeArm  26.1947 -0.889704 9.3662
RightHand  -0.24729 -0.0210522 -5.37781
LeftUpLeg  -14.9928 15.8627 11.4274
LeftLeg  13.7 -3.31799 -1.47309
LeftFoot  -1.54125 0.876924 -10.1028
LeftToes  5.09284e-011 3.02203e-011 3.83118e-011
103
root  0.625203 39.5441 13.7934 -173.676 1.50749 -178.748
RightUpLeg  -15.7663 1.26268 -6.53166
RightLeg  14.7367 4.00834 -0.105776
RightFoot  -3.9383 -0.459037 6.6724
RightToes  -1.33073e-015 0 -3.6325e-017
Spine  20.5647 0.732127 5.34125
Spine1  5.24164 0.399312 5.38384
HEad  9.57229 -4.45665 1.33829
LeftShoulder1  6.45213 -16.4295 -26.205
LeftArm  -5.76257 -33.5795 -76.8696
LeftForeArm  28.0381 6.04901 -1.38882
LeftHand  -0.246645 0.021 5.37786
RightShoulder  9.33777 17.3978 38.5632
RightArm  -3.95487 35.2282 53.9046
RightForeArm  24.4119 -0.594438 9.76333
RightHand  -0.24729 -0.0210522 -5.37781
LeftUpLeg  -15.0485 16.1544 11.3286
LeftLeg  14.1088 -3.36583 -1.4285
LeftFoot  -1.72609 0.861716 -10.1039
LeftToes  5.09284e-011 3.02203e-011 3.83118e-011
104
root  0.620056 39.5312 13.8012 -173.753 1.85774 -178.916
RightUpLeg  -15.9495 1.69655 -6.81978
RightLeg  15.0797 3.90891 0.0173476
RightFoot  -4.04308 -0.45119 6.63424
RightToes  -1.33073e-015 0 -3.6325e-017
Spine  20.6096 0.88719 5.21747
Spine1  5.44113 0.564031 5.29644
HEad  9.59759 -4.35327 1.09317
LeftShoulder1  6.51588 -16.4465 -26.5079
LeftArm  -5.44925 -33.8043 -76.5321
LeftForeArm  28.1062 6.08702 -1.61606
LeftHand  -0.246645 0.021 5.37786
RightShoulder  9.33721 17.4055 38.5447
RightArm  -3.72806 35.3944 53.8459
RightForeArm  24.2209 -0.435709 9.88883
RightHand  -0.24729 -0.0210522 -5.37781
LeftUpLeg  -14.898 16.3235 11.2026
LeftLeg  14.1706 -3.25449 -1.43157
LeftFoot  -1.76792 0.861363 -10.1492
LeftToes  5.09284e-011 3.02203e-011 3.83118e-011
105
root  0.617732 39.5328 13.7993 -173.787 2.06758 -179.059
RightUpLeg  -16.0211 1.80132 -7.00563
RightLeg  15.1983 3.98785 0.097497
RightFoot  -4.06654 -0.445899 6.57334
RightToes  -1.33073e-015 0 -3.6325e-017
Spine  20.6299 0.919381 5.24919
Spine1  5.56018 0.66556 5.03086
HEad  9.74123 -4.31617 0.947601
LeftShoulder1  6.51414 -16.4142 -26.5542
LeftArm  -5.21472 -33.889 -76.4038
LeftForeArm  28.2709 6.11111 -1.7683
LeftHand  -0.246645 0.021 5.37786
RightShoulder  9.34897 17.4113 38.5868
RightArm  -3.93269 35.4828 53.7842
RightForeArm  25.4073 -0.562386 9.75286
RightHand  -0.24729 -0.0210522 -5.37781
LeftUpLeg  -14.7103 16.438 11.1132
LeftLeg  14.0231 -3.18726 -1.48894
LeftFoot  -1.72643 0.865978 -10.2141
LeftToes  5.09284e-011 3.02203e-011 3.83118e-011
106
root  0.625329 39.5349 13.794 -173.767 2.20703 -179.107
RightUpLeg  -16.0888 1.92983 -7.05293
RightLeg  15.2443 3.97414 0.100828
RightFoot  -4.07187 -0.442965 6.53333
RightToes  -1.33073e-015 0 -3.6325e-017
Spine  20.6779 0.897389 5.42125
Spine1  5.53283 0.751794 4.70777
HEad  9.90022 -4.35013 0.918654
LeftShoulder1  6.48828 -16.3783 -26.4809
LeftArm  -5.02851 -33.9645 -76.3753
LeftForeArm  28.6027 6.12292 -1.85976
LeftHand  -0.246645 0.021 5.37786
RightShoulder  9.36373 17.4111 38.6549
RightArm  -4.08339 35.4998 53.7456
RightForeArm  26.3315 -0.786654 9.63688
RightHand  -0.24729 -0.0210522 -5.37781
LeftUpLeg  -14.6191 16.604 11.1056
LeftLeg  13.9203 -3.20839 -1.54743
LeftFoot  -1.70805 0.871831 -10.2668
LeftToes  5.09284e-011 3.02203e-011 3.83118e-011
